<?xml version="1.0" encoding="UTF-8"?>
<svg xmlns="http://www.w3.org/2000/svg" width="273" height="97" viewBox="0 0 273 97" fill="none">
  <g clip-path="url(#clip0_166_104)">
    <path d="M104.426 19.9685H110.979L121.383 33.401V19.9685H128.323V45.3763H122.216L111.367 31.4388V45.3763H104.426V19.9685Z" fill="#4E4E4F"></path>
    <mask id="mask0_166_104" style="mask-type:luminance" maskUnits="userSpaceOnUse" x="0" y="0" width="273" height="97">
      <path d="M273 0H0V97H273V0Z" fill="white"></path>
    </mask>
    <g mask="url(#mask0_166_104)">
      <path d="M130.924 35.6518V35.5796C130.924 29.8517 135.005 25.3069 140.796 25.3069C147.522 25.3069 150.625 30.2845 150.625 36.0558C150.625 36.4886 150.625 36.9936 150.597 37.4697H137.506C138.052 39.6051 139.604 40.7016 141.731 40.7016C143.397 40.7016 144.662 40.0812 146.07 38.7105L149.864 41.8703C147.981 44.2654 145.28 45.8669 141.4 45.8669C135.25 45.8669 130.924 41.726 130.924 35.6662M144.231 33.9493C143.972 31.7706 142.679 30.4 140.796 30.4C138.914 30.4 137.764 31.7851 137.405 33.9493H144.231Z" fill="#4E4E4F"></path>
      <path d="M150.597 25.7397H157.279L159.851 35.6085L162.883 25.6675H168.516L171.563 35.6951L174.192 25.7397H180.817L174.782 45.5206H168.847L165.671 35.2911L162.409 45.5206H156.56L150.597 25.7397Z" fill="#4E4E4F"></path>
      <path d="M103.593 63.8875V63.8154C103.593 56.4138 109.226 50.5993 116.899 50.5993C122.073 50.5993 125.392 52.7779 127.634 55.8655L122.36 59.9631C120.909 58.1884 119.256 56.9909 116.827 56.9909C113.292 56.9909 110.792 60.0352 110.792 63.7433V63.8154C110.792 67.6244 113.292 70.5966 116.827 70.5966C119.472 70.5966 121.024 69.3558 122.547 67.509L127.82 71.2891C125.435 74.5932 122.216 77.0171 116.655 77.0171C109.427 77.0171 103.607 71.4623 103.607 63.8731" fill="#4E4E4F"></path>
      <path d="M129.732 50.0222H136.6V59.5735C137.865 57.9432 139.676 56.4571 142.449 56.4571C146.602 56.4571 149.102 59.2128 149.102 63.6856V76.541H142.262V65.9075C142.262 63.7288 141.141 62.5746 139.474 62.5746C137.808 62.5746 136.586 63.7288 136.586 65.9075V76.541H129.717V50.051L129.732 50.0222Z" fill="#4E4E4F"></path>
      <path d="M151.79 69.6876V56.8755H158.658V67.509C158.658 69.6443 159.779 70.813 161.446 70.813C163.113 70.813 164.335 69.6588 164.335 67.509V56.8755H171.175V76.5121H164.335V73.7852C163.07 75.4156 161.259 76.945 158.486 76.945C154.333 76.945 151.804 74.1459 151.804 69.6876" fill="#4E4E4F"></path>
      <path d="M174.12 56.8755H180.989V60.8288C182.11 58.1452 183.921 56.3994 187.168 56.5437V63.801H186.593C183.015 63.801 180.989 65.8642 180.989 70.3658V76.4977H174.12V56.8611V56.8755Z" fill="#4E4E4F"></path>
      <path d="M187.758 66.7876V66.7154C187.758 61.1606 192.025 56.4859 198.204 56.4859C202.214 56.4859 204.887 58.2317 206.553 60.8432L201.926 64.3204C200.949 63.0507 199.9 62.2572 198.276 62.2572C196.035 62.2572 194.411 64.2482 194.411 66.6433V66.7154C194.411 69.2548 196.006 71.1737 198.319 71.1737C199.986 71.1737 201.035 70.409 202.084 69.1394L206.668 72.4722C204.858 75.1559 202.257 76.9738 197.989 76.9738C192.054 76.9738 187.758 72.328 187.758 66.7732" fill="#4E4E4F"></path>
      <path d="M208.364 50.0222H215.233V59.5735C216.497 57.9432 218.308 56.4571 221.081 56.4571C225.234 56.4571 227.735 59.2128 227.735 63.6856V76.541H220.895V65.9075C220.895 63.7288 219.774 62.5746 218.107 62.5746C216.44 62.5746 215.218 63.7288 215.218 65.9075V76.541H208.35V50.051L208.364 50.0222Z" fill="#4E4E4F"></path>
      <path d="M229.804 66.7876V66.7155C229.804 60.9875 233.885 56.4427 239.676 56.4427C246.401 56.4427 249.505 61.4203 249.505 67.1916C249.505 67.6244 249.505 68.1294 249.462 68.6055H236.371C236.917 70.7409 238.469 71.8374 240.596 71.8374C242.263 71.8374 243.527 71.217 244.935 69.8463L248.729 73.0061C246.847 75.4012 244.145 77.0027 240.265 77.0027C234.115 77.0027 229.79 72.8618 229.79 66.802M243.096 65.0851C242.837 62.9064 241.544 61.5358 239.662 61.5358C237.779 61.5358 236.63 62.9209 236.27 65.0851H243.096Z" fill="#4E4E4F"></path>
      <path d="M250.295 74.016L252.868 69.8752C255.109 71.3613 257.523 72.126 259.55 72.126C260.742 72.126 261.317 71.7653 261.317 71.0727V71.0006C261.317 70.207 260.196 69.8752 258.141 69.2981C254.276 68.2881 251.201 66.9751 251.201 63.0507V62.9786C251.201 58.8089 254.52 56.4859 259.047 56.4859C261.906 56.4859 264.867 57.3228 267.108 58.78L264.766 63.1373C262.74 61.983 260.541 61.2905 258.975 61.2905C257.926 61.2905 257.38 61.6945 257.38 62.2716V62.3437C257.38 63.1084 258.529 63.4691 260.556 64.0895C264.421 65.1861 267.496 66.5279 267.496 70.3369V70.409C267.496 74.723 264.277 76.9738 259.507 76.9738C256.216 76.9738 252.968 75.9927 250.295 74.0305" fill="#4E4E4F"></path>
      <path d="M104.627 84.5919H107.774C109.643 84.5919 110.807 85.6595 110.807 87.2755V87.3043C110.807 89.1078 109.37 90.0457 107.616 90.0457H106.036V92.6283H104.627V84.6063V84.5919ZM107.659 88.7616C108.723 88.7616 109.384 88.17 109.384 87.3332V87.3043C109.384 86.3665 108.709 85.876 107.659 85.876H106.021V88.7616H107.659Z" fill="#4E4E4F"></path>
      <path d="M111.468 89.6128V89.5839C111.468 87.8526 112.833 86.4242 114.686 86.4242C116.54 86.4242 117.891 87.8381 117.891 89.5695V89.5984C117.891 91.3153 116.526 92.7437 114.658 92.7437C112.79 92.7437 111.468 91.3297 111.468 89.6128ZM116.526 89.6128V89.5839C116.526 88.5163 115.764 87.6362 114.672 87.6362C113.58 87.6362 112.861 88.5018 112.861 89.5551V89.5839C112.861 90.6372 113.623 91.5173 114.701 91.5173C115.779 91.5173 116.526 90.6516 116.526 89.5984" fill="#4E4E4F"></path>
      <path d="M118.293 86.554H119.701L120.909 90.7093L122.245 86.5396H123.438L124.774 90.7093L126.01 86.554H127.389L125.421 92.6571H124.185L122.834 88.5163L121.469 92.6571H120.233L118.293 86.554Z" fill="#4E4E4F"></path>
      <path d="M127.777 89.5984V89.5695C127.777 87.8381 128.999 86.4242 130.723 86.4242C132.649 86.4242 133.612 87.9391 133.612 89.6849C133.612 89.8148 133.612 89.9302 133.583 90.0745H129.157C129.301 91.0556 130.005 91.6183 130.896 91.6183C131.571 91.6183 132.045 91.373 132.534 90.8969L133.339 91.6183C132.764 92.3108 131.988 92.7581 130.881 92.7581C129.128 92.7581 127.792 91.4884 127.792 89.6128M132.232 89.1511C132.146 88.2566 131.614 87.564 130.709 87.564C129.861 87.564 129.272 88.2133 129.142 89.1511H132.232Z" fill="#4E4E4F"></path>
      <path d="M134.761 86.5541H136.141V87.9247C136.514 87.0158 137.218 86.3953 138.282 86.4531V87.9247H138.196C136.989 87.9247 136.141 88.7183 136.141 90.3198V92.6283H134.761V86.5829V86.5541Z" fill="#4E4E4F"></path>
      <path d="M138.713 89.5984V89.5695C138.713 87.8381 139.934 86.4242 141.659 86.4242C143.584 86.4242 144.547 87.9391 144.547 89.6849C144.547 89.8148 144.547 89.9302 144.518 90.0745H140.092C140.236 91.0556 140.94 91.6183 141.831 91.6183C142.507 91.6183 142.981 91.373 143.469 90.8969L144.274 91.6183C143.699 92.3108 142.909 92.7581 141.817 92.7581C140.064 92.7581 138.727 91.4884 138.727 89.6128M143.182 89.1511C143.096 88.2566 142.564 87.564 141.659 87.564C140.811 87.564 140.222 88.2133 140.092 89.1511H143.182Z" fill="#4E4E4F"></path>
      <path d="M145.409 89.5984V89.5695C145.409 87.564 146.774 86.4242 148.211 86.4242C149.203 86.4242 149.835 86.9148 150.266 87.4919V84.2311H151.646V92.5994H150.266V91.5895C149.821 92.2243 149.188 92.7293 148.211 92.7293C146.789 92.7293 145.409 91.5895 145.409 89.584M150.281 89.5984V89.5695C150.281 88.4009 149.461 87.6362 148.527 87.6362C147.593 87.6362 146.789 88.372 146.789 89.5695V89.5984C146.789 90.7671 147.593 91.5317 148.527 91.5317C149.461 91.5317 150.281 90.7526 150.281 89.5984Z" fill="#4E4E4F"></path>
      <path d="M157.724 91.6616V92.5994H156.345V84.2311H157.724V87.5496C158.17 86.9148 158.802 86.4098 159.779 86.4098C161.202 86.4098 162.581 87.5352 162.581 89.5551V89.584C162.581 91.5895 161.216 92.7293 159.779 92.7293C158.773 92.7293 158.141 92.2243 157.724 91.6616ZM161.159 89.5984V89.5695C161.159 88.4009 160.368 87.6362 159.434 87.6362C158.5 87.6362 157.681 88.4153 157.681 89.5695V89.5984C157.681 90.7526 158.5 91.5317 159.434 91.5317C160.368 91.5317 161.159 90.7815 161.159 89.5984Z" fill="#4E4E4F"></path>
      <path d="M167.654 86.5541H169.091L166.691 92.7726C166.217 94.0134 165.671 94.4751 164.708 94.4751C164.133 94.4751 163.702 94.3308 163.285 94.1L163.76 93.0756C164.004 93.2199 164.277 93.3064 164.564 93.3064C164.952 93.3064 165.197 93.1333 165.427 92.6139L162.912 86.5541H164.392L166.088 91.0412L167.654 86.5541Z" fill="#4E4E4F"></path>
      <path d="M172.87 91.4452L173.718 90.4352C174.48 91.0989 175.256 91.474 176.233 91.474C177.095 91.474 177.655 91.0556 177.655 90.4641V90.4352C177.655 89.8581 177.339 89.5551 175.859 89.2088C174.163 88.7904 173.201 88.2854 173.201 86.8137V86.7849C173.201 85.4142 174.35 84.462 175.931 84.462C177.095 84.462 178.015 84.8227 178.834 85.4719L178.086 86.5396C177.368 86.0058 176.649 85.7172 175.917 85.7172C175.097 85.7172 174.609 86.1356 174.609 86.6695V86.6983C174.609 87.3187 174.968 87.5929 176.52 87.9536C178.216 88.372 179.078 88.978 179.078 90.3053V90.3342C179.078 91.8347 177.9 92.7293 176.218 92.7293C174.997 92.7293 173.847 92.3109 172.884 91.4452" fill="#4E4E4F"></path>
      <path d="M179.998 89.5984V89.5695C179.998 87.8381 181.219 86.4242 182.944 86.4242C184.869 86.4242 185.832 87.9391 185.832 89.6849C185.832 89.8148 185.832 89.9302 185.803 90.0745H181.377C181.521 91.0556 182.225 91.6183 183.116 91.6183C183.791 91.6183 184.266 91.373 184.754 90.8969L185.559 91.6183C184.984 92.3108 184.194 92.7581 183.087 92.7581C181.334 92.7581 179.998 91.4884 179.998 89.6128M184.452 89.1511C184.366 88.2566 183.835 87.564 182.929 87.564C182.081 87.564 181.492 88.2133 181.363 89.1511H184.452Z" fill="#4E4E4F"></path>
      <path d="M186.996 86.554H188.375V87.4774C188.763 86.9147 189.324 86.4242 190.258 86.4242C191.623 86.4242 192.399 87.3476 192.399 88.7327V92.5994H191.019V89.1655C191.019 88.2277 190.545 87.6794 189.726 87.6794C188.907 87.6794 188.375 88.2421 188.375 89.18V92.5994H186.996V86.554Z" fill="#4E4E4F"></path>
      <path d="M193.534 89.5984V89.5695C193.534 87.564 194.899 86.4242 196.336 86.4242C197.328 86.4242 197.96 86.9148 198.391 87.4919V84.2311H199.771V92.5994H198.391V91.5895C197.946 92.2243 197.313 92.7293 196.336 92.7293C194.914 92.7293 193.534 91.5895 193.534 89.584M198.406 89.5984V89.5695C198.406 88.4009 197.587 87.6362 196.652 87.6362C195.718 87.6362 194.914 88.372 194.914 89.5695V89.5984C194.914 90.7671 195.718 91.5317 196.652 91.5317C197.587 91.5317 198.406 90.7526 198.406 89.5984Z" fill="#4E4E4F"></path>
      <path d="M204.628 84.5919H205.921L210.203 90.1322V84.5919H211.583V92.6139H210.404L206.007 86.9003V92.6139H204.628V84.5919Z" fill="#4E4E4F"></path>
      <path d="M212.919 89.5984V89.5695C212.919 87.8381 214.141 86.4242 215.865 86.4242C217.791 86.4242 218.753 87.9391 218.753 89.6849C218.753 89.8148 218.753 89.9302 218.725 90.0745H214.299C214.442 91.0556 215.147 91.6183 216.037 91.6183C216.713 91.6183 217.187 91.373 217.676 90.8969L218.48 91.6183C217.906 92.3108 217.115 92.7581 216.023 92.7581C214.27 92.7581 212.934 91.4884 212.934 89.6128M217.388 89.1511C217.302 88.2566 216.77 87.564 215.865 87.564C215.017 87.564 214.428 88.2133 214.299 89.1511H217.388Z" fill="#4E4E4F"></path>
      <path d="M220.205 90.9402V87.7516H219.443V86.5541H220.205V84.8948H221.584V86.5541H223.208V87.7516H221.584V90.7238C221.584 91.2576 221.857 91.474 222.331 91.474C222.633 91.474 222.906 91.4019 223.194 91.272V92.4119C222.849 92.6139 222.475 92.7149 221.943 92.7149C220.923 92.7149 220.205 92.2676 220.205 90.9402Z" fill="#4E4E4F"></path>
      <path d="M223.869 86.554H225.292L226.499 90.7093L227.835 86.5396H229.028L230.364 90.7093L231.586 86.554H232.98L231.011 92.6571H229.761L228.424 88.5163L227.059 92.6571H225.823L223.869 86.554Z" fill="#4E4E4F"></path>
      <path d="M233.353 89.6128V89.5839C233.353 87.8526 234.718 86.4242 236.572 86.4242C238.426 86.4242 239.777 87.8381 239.777 89.5695V89.5984C239.777 91.3153 238.411 92.7437 236.543 92.7437C234.675 92.7437 233.353 91.3297 233.353 89.6128ZM238.411 89.6128V89.5839C238.411 88.5163 237.65 87.6362 236.558 87.6362C235.466 87.6362 234.747 88.5018 234.747 89.5551V89.5839C234.747 90.6372 235.509 91.5173 236.587 91.5173C237.664 91.5173 238.411 90.6516 238.411 89.5984" fill="#4E4E4F"></path>
      <path d="M240.955 86.5541H242.335V87.9247C242.708 87.0158 243.412 86.3953 244.476 86.4531V87.9247H244.39C243.182 87.9247 242.335 88.7183 242.335 90.3198V92.6283H240.955V86.5829V86.5541Z" fill="#4E4E4F"></path>
      <path d="M245.453 84.2456H246.832V89.2377L249.333 86.5541H250.999L248.614 89.0213L251.086 92.6139H249.462L247.68 89.988L246.832 90.8825V92.6139H245.453V84.2456Z" fill="#4E4E4F"></path>
      <path d="M93.4045 51.5948V94.0422H19.8448V34.31H3.03198V20.0406H19.8448V2.53934H34.071V20.0406H50.8839V34.31H34.071V79.7729H79.1926V57.6546L64.2766 42.5628V21.5123L93.4045 51.5948Z" fill="#D89533"></path>
    </g>
  </g>
  <defs>
    <clipPath id="clip0_166_104">
      <rect width="273" height="97" fill="white"></rect>
    </clipPath>
  </defs>
</svg>
